<svg width="14" height="15" viewBox="0 0 14 15" fill="none" xmlns="http://www.w3.org/2000/svg">
<path fill-rule="evenodd" clip-rule="evenodd" d="M12.2324 14H1V1L8.90374 1L12.2324 4.25832L12.2324 14ZM1 15H12.2324C12.7847 15 13.2324 14.5523 13.2324 14V4.25832C13.2324 3.9894 13.1241 3.73182 12.9319 3.5437L9.60326 0.28538C9.41637 0.102446 9.16526 0 8.90374 0H1C0.447715 0 0 0.447715 0 1V14C0 14.5523 0.447716 15 1 15ZM6.45312 6.92969L4.69141 4H3.03125L5.52734 8L3 12H4.67188L6.45312 9.08984H6.51562L8.29688 12H9.97656L7.47266 8L9.9375 4H8.28516L6.51562 6.92969H6.45312Z" fill="black"/>
</svg>
