<svg width="12" height="18" viewBox="0 0 12 18" fill="none" xmlns="http://www.w3.org/2000/svg">
<mask id="path-1-outside-1_47_15" maskUnits="userSpaceOnUse" x="0" y="0" width="12" height="18" fill="black">
<rect fill="white" width="12" height="18"/>
<path fill-rule="evenodd" clip-rule="evenodd" d="M11 3C11 4.10457 10.1046 5 9 5C8.45877 5 7.96776 4.78502 7.60769 4.43579L4.43579 7.60769C4.78502 7.96776 5 8.45877 5 9C5 9.54123 4.78502 10.0322 4.43579 10.3923L7.60769 13.5642C7.96776 13.215 8.45877 13 9 13C10.1046 13 11 13.8954 11 15C11 16.1046 10.1046 17 9 17C7.89543 17 7 16.1046 7 15C7 14.7065 7.06321 14.4278 7.17675 14.1768L3.82325 10.8232C3.57218 10.9368 3.29347 11 3 11C1.89543 11 1 10.1046 1 9C1 7.89543 1.89543 7 3 7C3.29347 7 3.57218 7.06321 3.82325 7.17675L7.17675 3.82325C7.06321 3.57218 7 3.29347 7 3C7 1.89543 7.89543 1 9 1C10.1046 1 11 1.89543 11 3Z"/>
</mask>
<path fill-rule="evenodd" clip-rule="evenodd" d="M11 3C11 4.10457 10.1046 5 9 5C8.45877 5 7.96776 4.78502 7.60769 4.43579L4.43579 7.60769C4.78502 7.96776 5 8.45877 5 9C5 9.54123 4.78502 10.0322 4.43579 10.3923L7.60769 13.5642C7.96776 13.215 8.45877 13 9 13C10.1046 13 11 13.8954 11 15C11 16.1046 10.1046 17 9 17C7.89543 17 7 16.1046 7 15C7 14.7065 7.06321 14.4278 7.17675 14.1768L3.82325 10.8232C3.57218 10.9368 3.29347 11 3 11C1.89543 11 1 10.1046 1 9C1 7.89543 1.89543 7 3 7C3.29347 7 3.57218 7.06321 3.82325 7.17675L7.17675 3.82325C7.06321 3.57218 7 3.29347 7 3C7 1.89543 7.89543 1 9 1C10.1046 1 11 1.89543 11 3Z" fill="#5C5C5C"/>
<path d="M7.60769 4.43579L7.74694 4.29222L7.60555 4.15509L7.46627 4.29437L7.60769 4.43579ZM4.43579 7.60769L4.29437 7.46627L4.15509 7.60555L4.29222 7.74694L4.43579 7.60769ZM4.43579 10.3923L4.29222 10.2531L4.15509 10.3945L4.29436 10.5337L4.43579 10.3923ZM7.60769 13.5642L7.46627 13.7056L7.60555 13.8449L7.74694 13.7078L7.60769 13.5642ZM7.17675 14.1768L7.35898 14.2592L7.41598 14.1331L7.31817 14.0353L7.17675 14.1768ZM3.82325 10.8232L3.96467 10.6818L3.86686 10.584L3.74084 10.641L3.82325 10.8232ZM3.82325 7.17675L3.74084 7.35898L3.86686 7.41598L3.96467 7.31817L3.82325 7.17675ZM7.17675 3.82325L7.31817 3.96467L7.41598 3.86686L7.35898 3.74084L7.17675 3.82325ZM9 5.2C10.215 5.2 11.2 4.21503 11.2 3H10.8C10.8 3.99411 9.99411 4.8 9 4.8V5.2ZM7.46845 4.57935C7.86432 4.96331 8.40473 5.2 9 5.2V4.8C8.51282 4.8 8.07119 4.60672 7.74694 4.29222L7.46845 4.57935ZM4.57721 7.74911L7.74911 4.57721L7.46627 4.29437L4.29437 7.46627L4.57721 7.74911ZM5.2 9C5.2 8.40473 4.96331 7.86432 4.57935 7.46845L4.29222 7.74694C4.60672 8.07119 4.8 8.51282 4.8 9H5.2ZM4.57935 10.5316C4.96331 10.1357 5.2 9.59527 5.2 9H4.8C4.8 9.48718 4.60672 9.92881 4.29222 10.2531L4.57935 10.5316ZM7.74911 13.4228L4.57721 10.2509L4.29436 10.5337L7.46627 13.7056L7.74911 13.4228ZM7.74694 13.7078C8.07119 13.3933 8.51282 13.2 9 13.2V12.8C8.40473 12.8 7.86432 13.0367 7.46845 13.4206L7.74694 13.7078ZM9 13.2C9.99411 13.2 10.8 14.0059 10.8 15H11.2C11.2 13.785 10.215 12.8 9 12.8V13.2ZM10.8 15C10.8 15.9941 9.99411 16.8 9 16.8V17.2C10.215 17.2 11.2 16.215 11.2 15H10.8ZM9 16.8C8.00589 16.8 7.2 15.9941 7.2 15H6.8C6.8 16.215 7.78497 17.2 9 17.2V16.8ZM7.2 15C7.2 14.7355 7.25692 14.4849 7.35898 14.2592L6.99452 14.0943C6.8695 14.3708 6.8 14.6776 6.8 15H7.2ZM3.68183 10.9647L7.03533 14.3182L7.31817 14.0353L3.96467 10.6818L3.68183 10.9647ZM3 11.2C3.32245 11.2 3.6292 11.1305 3.90566 11.0055L3.74084 10.641C3.51515 10.7431 3.26449 10.8 3 10.8V11.2ZM0.8 9C0.8 10.215 1.78497 11.2 3 11.2V10.8C2.00589 10.8 1.2 9.99411 1.2 9H0.8ZM3 6.8C1.78497 6.8 0.8 7.78497 0.8 9H1.2C1.2 8.00589 2.00589 7.2 3 7.2V6.8ZM3.90566 6.99452C3.6292 6.8695 3.32245 6.8 3 6.8V7.2C3.26449 7.2 3.51515 7.25692 3.74084 7.35898L3.90566 6.99452ZM7.03533 3.68183L3.68183 7.03533L3.96467 7.31817L7.31817 3.96467L7.03533 3.68183ZM6.8 3C6.8 3.32245 6.8695 3.6292 6.99452 3.90566L7.35898 3.74084C7.25692 3.51515 7.2 3.26449 7.2 3H6.8ZM9 0.8C7.78497 0.8 6.8 1.78497 6.8 3H7.2C7.2 2.00589 8.00589 1.2 9 1.2V0.8ZM11.2 3C11.2 1.78497 10.215 0.8 9 0.8V1.2C9.99411 1.2 10.8 2.00589 10.8 3H11.2Z" fill="#5C5C5C" mask="url(#path-1-outside-1_47_15)"/>
</svg>
