<svg width="11" height="17" viewBox="0 0 11 17" fill="none" xmlns="http://www.w3.org/2000/svg">
<mask id="path-1-outside-1_47_15" maskUnits="userSpaceOnUse" x="0" y="0" width="11" height="17" fill="black">
<rect fill="white" width="11" height="17"/>
<path fill-rule="evenodd" clip-rule="evenodd" d="M10 2.5C10 3.32843 9.32843 4 8.5 4C8.17872 4 7.88103 3.89899 7.63696 3.72701L3.72701 7.63696C3.89899 7.88103 4 8.17872 4 8.5C4 8.73435 3.94626 8.95614 3.85043 9.15374L7.84627 13.1496C8.04386 13.0537 8.26565 13 8.5 13C9.32843 13 10 13.6716 10 14.5C10 15.3284 9.32843 16 8.5 16C7.67157 16 7 15.3284 7 14.5C7 14.1787 7.10101 13.881 7.273 13.637L3.36304 9.72701C3.11897 9.89899 2.82128 10 2.5 10C1.67157 10 1 9.32843 1 8.5C1 7.67157 1.67157 7 2.5 7C2.73435 7 2.95614 7.05374 3.15374 7.14957L7.14957 3.15374C7.05374 2.95614 7 2.73435 7 2.5C7 1.67157 7.67157 1 8.5 1C9.32843 1 10 1.67157 10 2.5Z"/>
</mask>
<path fill-rule="evenodd" clip-rule="evenodd" d="M10 2.5C10 3.32843 9.32843 4 8.5 4C8.17872 4 7.88103 3.89899 7.63696 3.72701L3.72701 7.63696C3.89899 7.88103 4 8.17872 4 8.5C4 8.73435 3.94626 8.95614 3.85043 9.15374L7.84627 13.1496C8.04386 13.0537 8.26565 13 8.5 13C9.32843 13 10 13.6716 10 14.5C10 15.3284 9.32843 16 8.5 16C7.67157 16 7 15.3284 7 14.5C7 14.1787 7.10101 13.881 7.273 13.637L3.36304 9.72701C3.11897 9.89899 2.82128 10 2.5 10C1.67157 10 1 9.32843 1 8.5C1 7.67157 1.67157 7 2.5 7C2.73435 7 2.95614 7.05374 3.15374 7.14957L7.14957 3.15374C7.05374 2.95614 7 2.73435 7 2.5C7 1.67157 7.67157 1 8.5 1C9.32843 1 10 1.67157 10 2.5Z" fill="black"/>
<path d="M7.63696 3.72701L7.75217 3.56352L7.61457 3.46656L7.49554 3.58558L7.63696 3.72701ZM3.72701 7.63696L3.58558 7.49554L3.46656 7.61457L3.56352 7.75217L3.72701 7.63696ZM3.85043 9.15374L3.67048 9.06646L3.60837 9.19452L3.70901 9.29516L3.85043 9.15374ZM7.84627 13.1496L7.70484 13.291L7.80548 13.3916L7.93354 13.3295L7.84627 13.1496ZM7.273 13.637L7.43648 13.7522L7.53344 13.6146L7.41442 13.4955L7.273 13.637ZM3.36304 9.72701L3.50446 9.58558L3.38543 9.46656L3.24783 9.56352L3.36304 9.72701ZM3.15374 7.14957L3.06646 7.32952L3.19452 7.39163L3.29516 7.29099L3.15374 7.14957ZM7.14957 3.15374L7.29099 3.29516L7.39163 3.19452L7.32952 3.06646L7.14957 3.15374ZM8.5 4.2C9.43888 4.2 10.2 3.43888 10.2 2.5H9.8C9.8 3.21797 9.21797 3.8 8.5 3.8V4.2ZM7.52176 3.89049C7.79845 4.08546 8.13615 4.2 8.5 4.2V3.8C8.2213 3.8 7.96362 3.71252 7.75217 3.56352L7.52176 3.89049ZM3.86843 7.77838L7.77838 3.86843L7.49554 3.58558L3.58558 7.49554L3.86843 7.77838ZM4.2 8.5C4.2 8.13615 4.08546 7.79845 3.89049 7.52176L3.56352 7.75217C3.71252 7.96362 3.8 8.2213 3.8 8.5H4.2ZM4.03038 9.24101C4.13912 9.01681 4.2 8.76523 4.2 8.5H3.8C3.8 8.70346 3.7534 8.89548 3.67048 9.06646L4.03038 9.24101ZM7.98769 13.0081L3.99185 9.01231L3.70901 9.29516L7.70484 13.291L7.98769 13.0081ZM7.93354 13.3295C8.10452 13.2466 8.29654 13.2 8.5 13.2V12.8C8.23477 12.8 7.98319 12.8609 7.75899 12.9696L7.93354 13.3295ZM8.5 13.2C9.21797 13.2 9.8 13.782 9.8 14.5H10.2C10.2 13.5611 9.43888 12.8 8.5 12.8V13.2ZM9.8 14.5C9.8 15.218 9.21797 15.8 8.5 15.8V16.2C9.43888 16.2 10.2 15.4389 10.2 14.5H9.8ZM8.5 15.8C7.78203 15.8 7.2 15.218 7.2 14.5H6.8C6.8 15.4389 7.56112 16.2 8.5 16.2V15.8ZM7.2 14.5C7.2 14.2213 7.28748 13.9636 7.43648 13.7522L7.10951 13.5218C6.91454 13.7984 6.8 14.1361 6.8 14.5H7.2ZM3.22162 9.86843L7.13157 13.7784L7.41442 13.4955L3.50446 9.58558L3.22162 9.86843ZM2.5 10.2C2.86385 10.2 3.20155 10.0855 3.47824 9.89049L3.24783 9.56352C3.03638 9.71252 2.7787 9.8 2.5 9.8V10.2ZM0.8 8.5C0.8 9.43888 1.56112 10.2 2.5 10.2V9.8C1.78203 9.8 1.2 9.21797 1.2 8.5H0.8ZM2.5 6.8C1.56112 6.8 0.8 7.56112 0.8 8.5H1.2C1.2 7.78203 1.78203 7.2 2.5 7.2V6.8ZM3.24101 6.96962C3.01681 6.86088 2.76523 6.8 2.5 6.8V7.2C2.70346 7.2 2.89548 7.2466 3.06646 7.32952L3.24101 6.96962ZM7.00815 3.01231L3.01231 7.00815L3.29516 7.29099L7.29099 3.29516L7.00815 3.01231ZM6.8 2.5C6.8 2.76523 6.86088 3.01681 6.96962 3.24101L7.32952 3.06646C7.2466 2.89548 7.2 2.70346 7.2 2.5H6.8ZM8.5 0.8C7.56112 0.8 6.8 1.56112 6.8 2.5H7.2C7.2 1.78203 7.78203 1.2 8.5 1.2V0.8ZM10.2 2.5C10.2 1.56112 9.43888 0.8 8.5 0.8V1.2C9.21797 1.2 9.8 1.78203 9.8 2.5H10.2Z" fill="black" mask="url(#path-1-outside-1_47_15)"/>
</svg>
