<svg width="32" height="32" viewBox="0 0 32 32" fill="none" xmlns="http://www.w3.org/2000/svg">
<rect width="8" height="12" rx="2" transform="matrix(-4.37114e-08 1 1 4.37114e-08 1.39876e-06 0)" fill="#646CFF"/>
<rect width="4" height="12" rx="2" transform="matrix(-4.37114e-08 1 1 4.37114e-08 1.39876e-06 11)" fill="#646CFF"/>
<rect width="4" height="17" rx="2" transform="matrix(-4.37114e-08 1 1 4.37114e-08 15 28)" fill="#646CFF"/>
<rect width="14" height="12" rx="2" transform="matrix(-4.37114e-08 1 1 4.37114e-08 1.39876e-06 18)" fill="#646CFF"/>
<rect width="25" height="17" rx="2" transform="matrix(-4.37114e-08 1 1 4.37114e-08 15 0)" fill="#646CFF"/>
</svg>
